<svg
        xmlns="http://www.w3.org/2000/svg"
        viewBox="0 0 512 512"
        class="w-5 flex-shrink-0"
>
    <path
            fill="currentColor"
            d="M391 496c0-24.853-20.147-45-45-45H166c-24.853 0-45 20.147-45 45v16h270zM482 121V91H298.237A44.941 44.941 0 00271 63.763V0h-30v63.763A44.941 44.941 0 00213.763 91H30v30h37.504L0 286c0 41.353 33.647 75 75 75h30c41.353 0 75-33.647 75-75l-67.809-165h101.573a44.941 44.941 0 0027.237 27.237v214.407c-29.315 5.999-52.505 29.03-58.482 58.356h146.964c-5.977-29.326-29.167-52.357-58.482-58.356V148.237A44.941 44.941 0 00298.238 121h101.267L332 286c0 41.353 33.647 75 75 75h30c41.353 0 75-33.647 75-75l-67.809-165zM142.496 271H37.504L90 144.994zm332 0H369.504L422 144.994z"
    />
</svg>