<svg
        xmlns="http://www.w3.org/2000/svg"
        viewBox="0 0 512.001 512.001"
        class="w-5 flex-shrink-0"
>
    <path
            fill="currentColor"
            d="M363.266 211.569v-62.835h-62.834L256 104.303l-44.43 44.431h-62.835v62.835L104.303 256l44.432 44.431v62.835h62.835L256 407.697l44.432-44.431h62.834v-62.835L407.698 256z"
    />
    <path
            fill="currentColor"
            d="M437.021 181.019V74.98H330.982L256 0l-74.981 74.98H74.982v106.038L0 256l74.98 74.981V437.02h106.038L256 512.001l74.981-74.981H437.02V330.981L512 256l-74.979-74.981zm-43.755 131.837v80.409h-80.409L256 450.124l-56.856-56.858h-80.409v-80.409L61.876 256l56.858-56.856v-80.409h80.409L256 61.876l56.856 56.858h80.409v80.409L450.125 256l-56.859 56.856z"
    />
</svg>