<svg
        xmlns="http://www.w3.org/2000/svg"
        viewBox="0 0 391 391"
        class="w-5 flex-shrink-0"
>
    <path
            fill="currentColor"
            d="M390.269 186.529l-75-123a5 5 0 00-6.084-2.056l-8.965 3.493-1.259-2.065a7.366 7.366 0 00-8.965-3.029L195.5 96.69l-94.496-36.817a7.365 7.365 0 00-8.965 3.029l-1.259 2.065-8.965-3.493a5 5 0 00-6.084 2.056l-75 123a4.998 4.998 0 002.426 7.251l106.966 42.394-13.941 89.69a5.002 5.002 0 004.941 5.768h12.486a5.003 5.003 0 002.831-.878l79.06-54.306 79.06 54.306a5 5 0 002.831.878h12.486a4.998 4.998 0 004.941-5.768l-13.941-89.69 106.966-42.394a4.997 4.997 0 002.426-7.252zM199.5 224.227v-64a4 4 0 00-8 0v64L46.071 166.59l55.335-90.748 91.419 35.619c1.721.67 3.629.67 5.35 0l91.419-35.619 55.334 90.748L199.5 224.227z"
    />
    <path
            fill="currentColor"
            d="M284.28 106.929a3.999 3.999 0 00-5.18-2.274l-59 23a4 4 0 102.906 7.454l59-23a4.001 4.001 0 002.274-5.18zM229.829 149.639a4 4 0 102.906 7.454l59-23a4 4 0 10-2.906-7.454l-59 23zM238.062 178.835a4.002 4.002 0 005.18 2.274l59-23a4 4 0 00-2.906-7.455l-59 23a4.002 4.002 0 00-2.274 5.181zM170.9 127.655l-59-23a4.001 4.001 0 00-2.906 7.454l59 23a4.002 4.002 0 005.18-2.274 4 4 0 00-2.274-5.18zM161.172 149.639l-59-23a4.001 4.001 0 00-2.906 7.454l59 23a4.002 4.002 0 005.18-2.274 4.001 4.001 0 00-2.274-5.18zM150.664 173.655l-59-23a4.002 4.002 0 00-2.906 7.455l59 23a4.002 4.002 0 002.906-7.455z"
    />
</svg>