<svg
        xmlns="http://www.w3.org/2000/svg"
        viewBox="0 0 308.619 308.619"
        class="w-5 flex-shrink-0"
>
    <path
            fill="currentColor"
            d="M203.271 52.852H89.541c-1.392 11.367-8.421 21.161-18.817 26.114v177.033c7.051 3.358 12.545 8.947 15.79 15.74a33.445 33.445 0 013.026 10.372h113.731a33.473 33.473 0 013.027-10.372c3.245-6.793 8.74-12.382 15.79-15.74V78.965c-10.394-4.952-17.423-14.746-18.817-26.113zM137.36 64.577a8.214 8.214 0 012.695-1.195c.78-.887 1.629-1.609 2.54-2.153 1.844-2.232 3.81-3.512 3.81-3.512s1.968 1.279 3.811 3.512c.912.544 1.763 1.267 2.542 2.153.962.236 1.87.629 2.696 1.195 3.221 2.209 4.442 6.505 3.65 11.205.49.621.758 1.288.758 1.984 0 .697-.268 1.361-.758 1.982.792 4.7-.43 8.994-3.65 11.204a8.05 8.05 0 01-2.696 1.195c-.779.886-1.63 1.612-2.542 2.153-1.843 2.234-3.808 3.513-3.808 3.513s-1.969-1.278-3.813-3.513c-.911-.541-1.76-1.268-2.54-2.153a8.062 8.062 0 01-2.695-1.195c-3.221-2.21-4.443-6.504-3.65-11.204-.49-.621-.757-1.285-.757-1.982 0-.696.267-1.363.757-1.984-.793-4.7.429-8.996 3.65-11.205zm-19.825 60.816c2.64-1.811 5.538-3.065 8.606-3.806 2.48-2.83 5.198-5.151 8.094-6.875 5.899-7.135 12.17-11.211 12.17-11.211s6.272 4.076 12.171 11.209c2.896 1.725 5.615 4.047 8.096 6.877 3.07.74 5.967 1.995 8.606 3.806 10.278 7.05 14.175 20.76 11.648 35.76 1.563 1.979 2.416 4.108 2.416 6.329 0 2.22-.854 4.349-2.416 6.33 2.527 14.998-1.369 28.709-11.648 35.758-2.64 1.811-5.536 3.066-8.606 3.807-2.48 2.83-5.199 5.151-8.096 6.875-5.898 7.133-12.168 11.209-12.168 11.209s-6.273-4.074-12.173-11.208c-2.897-1.724-5.614-4.046-8.095-6.876-3.069-.74-5.966-1.996-8.606-3.807-10.277-7.049-14.174-20.76-11.646-35.758-1.563-1.982-2.418-4.11-2.418-6.33 0-2.221.855-4.35 2.418-6.329-2.528-15.001 1.37-28.711 11.647-35.76zm32.682 148.34c-1.843 2.233-3.808 3.512-3.808 3.512s-1.969-1.279-3.813-3.512c-.855-.51-1.652-1.184-2.392-1.995-.049-.054-.1-.103-.148-.157a8.184 8.184 0 01-2.695-1.195c-3.221-2.209-4.443-6.506-3.65-11.205-.49-.621-.757-1.287-.757-1.984 0-.697.267-1.361.757-1.984-.793-4.697.429-8.992 3.65-11.203a8.132 8.132 0 012.695-1.195c.78-.886 1.629-1.611 2.54-2.153 1.844-2.233 3.81-3.511 3.81-3.511s1.968 1.277 3.811 3.511c.912.542 1.763 1.268 2.542 2.153a8.11 8.11 0 012.696 1.195c3.221 2.211 4.442 6.506 3.65 11.203.49.623.758 1.287.758 1.984 0 .697-.268 1.363-.758 1.984.792 4.699-.43 8.996-3.65 11.205a8.17 8.17 0 01-2.696 1.195c-.048.055-.099.104-.148.157-.74.812-1.539 1.486-2.394 1.995z"
    />
    <path
            fill="currentColor"
            d="M269.31 0H56.872a5.267 5.267 0 00-4.34 2.282L34.97 27.802a5.265 5.265 0 00-.897 3.5c-.006.105-.031.205-.031.312v271.738a5.269 5.269 0 005.269 5.269h214.193a5.268 5.268 0 005.269-5.269v-21.075h10.538a5.268 5.268 0 005.269-5.268V5.269A5.271 5.271 0 00269.31 0zm-39.389 258.578a3.915 3.915 0 01-2.518 3.658c-5.046 1.927-9.196 5.28-12.083 9.502a25.572 25.572 0 00-4.158 10.537 26.28 26.28 0 00-.311 3.784 3.917 3.917 0 01-3.916 3.883H85.878a3.916 3.916 0 01-3.916-3.883 26.28 26.28 0 00-.31-3.784 25.544 25.544 0 00-4.158-10.537c-2.886-4.222-7.037-7.575-12.083-9.502a3.915 3.915 0 01-2.519-3.658V76.386a3.915 3.915 0 012.518-3.658c9.965-3.808 16.462-13.16 16.552-23.825a3.916 3.916 0 013.916-3.883h121.057a3.916 3.916 0 013.916 3.882c.091 10.667 6.588 20.019 16.552 23.826a3.914 3.914 0 012.518 3.658v182.192zm34.12 13.16h-5.269V31.612a5.268 5.268 0 00-5.269-5.269H64.537l10.878-15.807h188.626v261.202z"
    />
</svg>