<svg
        xmlns="http://www.w3.org/2000/svg"
        viewBox="0 0 431.156 431.156"
        class="w-5 flex-shrink-0"
>
    <path
            fill="currentColor"
            d="M302 242.556h-7.609v-15.242c0-41.989-50.483-73.686-70.64-84.669a7.784 7.784 0 00-1.318-4.003c3.447-2.207 5.587-5.971 5.587-10.047 0-4.075-2.14-7.84-5.587-10.05a7.784 7.784 0 001.345-4.355c0-2.737-1.422-5.232-3.762-6.688l-2.95-23.407a1.5 1.5 0 00-2.976 0l-2.95 23.407c-2.34 1.456-3.762 3.951-3.762 6.688 0 1.558.476 3.071 1.344 4.355-3.446 2.209-5.586 5.974-5.586 10.05 0 4.076 2.14 7.84 5.586 10.047a7.783 7.783 0 00-1.317 4.003c-20.157 10.983-70.64 42.68-70.64 84.669v15.242h-7.609a3.35 3.35 0 00-3.35 3.35v32.657c0 1.85 1.5 3.35 3.35 3.35h3.806v66.323h29.986v-3.015c0-30.454 52.629-50.411 52.629-50.411s52.633 19.957 52.633 50.411v3.015h29.985v-66.323H302c1.85 0 3.35-1.5 3.35-3.35v-32.657a3.35 3.35 0 00-3.35-3.35zm-141.881 28.723h-9.672v-10.924c0-4.328 2.688-7.164 4.836-7.164 2.149 0 4.836 2.836 4.836 7.164v10.924zm30.147 0h-9.671v-10.924c0-4.328 2.686-7.164 4.835-7.164 2.15 0 4.836 2.836 4.836 7.164v10.924zm30.146 0h-9.669v-10.924c0-4.328 2.685-7.164 4.835-7.164 2.149 0 4.834 2.836 4.834 7.164v10.924zm30.147 0h-9.67v-10.924c0-4.328 2.686-7.164 4.835-7.164 2.148 0 4.835 2.836 4.835 7.164v10.924zm30.149 0h-9.673v-10.924c0-4.328 2.688-7.164 4.836-7.164 2.15 0 4.837 2.836 4.837 7.164v10.924zM428.859 275.921h-5.216v-10.449c0-28.453-33.813-50.011-47.94-57.777l.002-.026a5.781 5.781 0 00-.755-2.849c2.271-1.626 3.662-4.224 3.662-7.025 0-2.802-1.393-5.4-3.663-7.026.49-.866.756-1.845.756-2.849 0-1.965-.981-3.762-2.609-4.862l-1.996-15.831a1.5 1.5 0 00-2.976 0l-1.993 15.83c-1.629 1.098-2.61 2.896-2.61 4.862 0 1.004.265 1.983.754 2.848-2.271 1.626-3.665 4.225-3.665 7.027 0 2.802 1.393 5.399 3.664 7.025a5.795 5.795 0 00-.753 2.849l.001.026c-14.125 7.765-47.939 29.324-47.939 57.778v10.449h-5.219a2.296 2.296 0 00-2.297 2.296v22.39a2.296 2.296 0 002.297 2.296h2.608v45.471h20.559v-2.068c0-20.879 36.08-34.56 36.08-34.56s36.083 13.682 36.083 34.56v2.068h20.559v-45.471h2.608a2.296 2.296 0 002.297-2.296v-22.39a2.3 2.3 0 00-2.299-2.296zm-97.27 19.692h-6.63v-7.491c0-2.967 1.842-4.909 3.316-4.909 1.473 0 3.314 1.942 3.314 4.909v7.491zm20.669 0h-6.63v-7.491c0-2.967 1.843-4.909 3.315-4.909 1.474 0 3.315 1.942 3.315 4.909v7.491zm20.668 0h-6.629v-7.491c0-2.967 1.84-4.909 3.314-4.909s3.315 1.942 3.315 4.909v7.491zm20.666 0h-6.629v-7.491c0-2.967 1.841-4.909 3.316-4.909 1.473 0 3.313 1.942 3.313 4.909v7.491zm20.669 0h-6.63v-7.491c0-2.967 1.843-4.909 3.315-4.909 1.473 0 3.315 1.942 3.315 4.909v7.491zM120.793 275.921h-5.22v-10.449c0-28.455-33.815-50.014-47.939-57.778l.001-.025a5.797 5.797 0 00-.752-2.849c2.271-1.626 3.664-4.224 3.664-7.025 0-2.802-1.393-5.401-3.665-7.027a5.786 5.786 0 00.753-2.848c0-1.966-.981-3.764-2.609-4.862l-1.994-15.83a1.5 1.5 0 00-2.976 0l-1.997 15.831c-1.628 1.1-2.61 2.897-2.61 4.862a5.79 5.79 0 00.756 2.849c-2.271 1.626-3.663 4.225-3.663 7.026s1.392 5.399 3.662 7.025a5.784 5.784 0 00-.755 2.849l.001.027c-14.127 7.766-47.939 29.324-47.939 57.776v10.449H2.296A2.296 2.296 0 000 278.218v22.39a2.296 2.296 0 002.296 2.296h2.608v45.471h20.56v-2.068c0-20.879 36.079-34.56 36.079-34.56s36.082 13.682 36.082 34.56v2.068h20.558v-45.471h2.609a2.296 2.296 0 002.296-2.296v-22.39a2.294 2.294 0 00-2.295-2.297zm-97.269 19.692h-6.629v-7.491c0-2.967 1.84-4.909 3.313-4.909s3.316 1.942 3.316 4.909v7.491zm20.667 0h-6.628v-7.491c0-2.967 1.841-4.909 3.313-4.909 1.475 0 3.315 1.942 3.315 4.909v7.491zm20.667 0h-6.63v-7.491c0-2.967 1.843-4.909 3.316-4.909 1.474 0 3.314 1.942 3.314 4.909v7.491zm20.671 0h-6.632v-7.491c0-2.967 1.842-4.909 3.315-4.909 1.473 0 3.317 1.942 3.317 4.909v7.491zm20.667 0H99.566v-7.491c0-2.967 1.841-4.909 3.313-4.909 1.476 0 3.317 1.942 3.317 4.909v7.491z"
    />
</svg>