<svg
        xmlns="http://www.w3.org/2000/svg"
        viewBox="0 0 350 350"
        class="w-5 flex-shrink-0"
>
    <path
            fill="currentColor"
            d="M248.631 294.941h-4.045c-6.326-36.704-7.344-74.362-29.263-95.858-21.472-21.054-49.554-27.569-68.185-44.61v-7.976c1.707-.817 2.897-2.547 2.897-4.562 0-2.016-1.19-3.746-2.897-4.564v-3.39c.445-.51.724-1.169.724-1.898 0-1.6-2.897-9.853-2.897-9.853s-2.898 8.253-2.898 9.853c0 .73.279 1.39.725 1.899v3.389c-1.708.817-2.898 2.548-2.898 4.564s1.191 3.745 2.898 4.563v7.975c-18.631 17.041-46.714 23.556-68.185 44.611-21.92 21.497-22.939 59.154-29.264 95.858h-4.047l-6.955 17.967h221.246l-6.956-17.968zm-174.166-.724h-7.856v-11.302h7.856v11.302zm24.808 0h-7.855v-11.302h7.855v11.302zm24.809 0h-7.855v-11.302h7.855v11.302zm24.811 0h-7.857v-11.302h7.857v11.302zm24.808 0h-7.857v-11.302h7.857v11.302zm24.807 0h-7.855v-11.302h7.855v11.302zm24.81 0h-7.857v-11.302h7.857v11.302z"
    />
    <path
            fill="currentColor"
            d="M308.162 225.744v-8.563l-9.355-8.162-11.952 10.434L274.9 209.02l-9.336 8.15v8.574H250.35v28.398h10.995v68.039H26.623V350h285.755v-95.857h10.999v-28.398h-15.215zm-11.035 91.897H276.6v-27.826h2.84v-10.951l7.424-7.297 7.424 7.297v10.951h2.84v27.826z"
    />
    <path
            fill="currentColor"
            d="M274.9 185.547l-9.336 8.149V211.4l9.336-8.15 11.956 10.434 11.95-10.434 9.356 8.163v-17.706l-9.355-8.161-11.951 10.433z"
    />
    <path
            fill="currentColor"
            d="M259.113 159.962l6.451 20.068v7.896l9.336-8.149 11.955 10.432 11.951-10.431 9.356 8.161v-7.914l6.451-20.063h-6.451V79.179l6.451-20.063h-17.139V41.619c0-5.115-3.621-9.384-8.438-10.387v-6.965c1.707-.817 2.898-2.547 2.898-4.561 0-2.016-1.191-3.746-2.898-4.564v-3.391a2.872 2.872 0 00.725-1.899c0-1.6-2.898-9.852-2.898-9.852s-2.897 8.253-2.897 9.852c0 .731.279 1.39.724 1.899v3.392c-1.707.817-2.897 2.547-2.897 4.563 0 2.015 1.19 3.744 2.897 4.561v6.965c-4.818 1.003-8.438 5.271-8.438 10.387v17.497h-17.139l6.451 20.068v80.777h-6.451zm21.94-69.652h1.607v-6.198l4.203-4.131 4.201 4.131v6.198h1.607v15.752h-11.619V90.31zm0 37.381h1.607v-6.195l4.203-4.133 4.201 4.133v6.195h1.607v15.752h-11.619v-15.752z"
    />
</svg>