<svg
        xmlns="http://www.w3.org/2000/svg"
        viewBox="0 0 512 512"
        class="w-5 flex-shrink-0"
>
    <path
            fill="currentColor"
            d="M120 180c0-97.297 65.434-143.762 90.512-180C194.086 12.05 0 59.29 0 256c0 140.61 115.39 256 256 256 196.688 0 243.71-193.75 256-210.496C478.156 324.918 429.21 392 331 392c-115.797 0-211-96.203-211-212zm0 0"
    />
    <path
            fill="currentColor"
            d="M417.254 79.086L376 0l-40.387 79.203-90.133 13.258 65.333 63.484-15.247 90.825L376 204.246l81.844 42.246-15.54-90.75 65.126-63.707zm0 0"
    />
</svg>