<svg
        xmlns="http://www.w3.org/2000/svg"
        viewBox="0 0 29.59 29.59"
        class="w-5 flex-shrink-0"
>
    <path
            fill="currentColor"
            d="M25.373 5.861h-2.667V4.22A4.23 4.23 0 0018.488 0h-7.383a4.233 4.233 0 00-4.221 4.22v1.641H4.221C1.896 5.861 0 7.467 0 9.787v15.584a4.23 4.23 0 004.221 4.219h21.152a4.23 4.23 0 004.217-4.219V9.787c0-2.32-1.897-3.926-4.217-3.926zM9.146 4.22c0-1.037.924-1.96 1.959-1.96h7.383c1.031 0 1.957.924 1.957 1.96v1.641H9.146V4.22zm12.43 16.33h-4.521v4.521h-4.519V20.55h-4.52V14.9h4.521v-4.518h4.519V14.9h4.521l-.001 5.65z"
    />
</svg>