<svg
        xmlns="http://www.w3.org/2000/svg"
        viewBox="0 0 500 500"
        class="w-5 flex-shrink-0"
>
    <path
            fill="currentColor"
            d="M507.606 245.393l-66.195-66.195V85.589c0-8.284-6.716-15-15-15h-93.609L266.607 4.394c-5.857-5.858-15.355-5.858-21.213 0l-66.195 66.195h-93.61c-8.284 0-15 6.716-15 15v93.609L4.394 245.394c-5.858 5.858-5.858 15.355 0 21.213l66.195 66.196v93.609c0 8.284 6.716 15 15 15H144.6V320.267c0-56.34 42.042-103.038 96.4-110.386V196.24c-49.888-17.609-38.539-90.755 15.001-91.806 8.284 0 14.999 6.716 14.999 15s-6.716 15-15 15c-9.447 0-17.133 7.686-17.133 17.134-.036 15.145 18.582 22.871 29.245 12.112 5.857-5.858 15.355-5.858 21.213 0s5.858 15.355 0 21.213c-5.24 5.24-11.499 9.082-18.325 11.367v13.621c54.358 7.349 96.4 54.047 96.4 110.386v121.144h59.011c8.284 0 15-6.716 15-15v-93.609l66.195-66.196c5.859-5.858 5.859-15.355 0-21.213z"
    />
    <path
            fill="currentColor"
            d="M337.4 335.267H174.6v101.546l70.793 70.793c5.857 5.858 15.355 5.858 21.213 0l70.794-70.794zM256 238.867c-39.761 0-72.955 28.656-80.015 66.4h160.029c-7.059-37.745-40.253-66.4-80.014-66.4z"
    />
</svg>